<?xml version="1.0" encoding="utf-8"?>
<!-- Generator: Adobe Illustrator 17.0.0, SVG Export Plug-In . SVG Version: 6.00 Build 0)  -->
<!DOCTYPE svg PUBLIC "-//W3C//DTD SVG 1.1//EN" "http://www.w3.org/Graphics/SVG/1.1/DTD/svg11.dtd">
<svg version="1.1" id="Layer_1" xmlns="http://www.w3.org/2000/svg" xmlns:xlink="http://www.w3.org/1999/xlink" x="0px" y="0px"
	 width="1000px" height="1000px" viewBox="0 0 1000 1000" enable-background="new 0 0 1000 1000" xml:space="preserve">
<path fill="none" stroke="#000000" stroke-width="30" stroke-miterlimit="10" d="M884.088,1506c45,0,297,0,324,0
	c19.224,0-198,0-180,0c81,0,0,360,0,360h434.333"/>
<path fill="none" stroke="#070808" stroke-width="60" stroke-miterlimit="10" d="M1388.088,859.652h268.343
	c0,0-135.95-438.165,3.659-524.183c61.738-38.039,187.289,129.09,259.804,128.987c73.64-0.104,200.822-170.447,263.464-131.732
	c140.072,86.569,0,526.927,0,526.927h296.397"/>
<rect x="1280.088" y="-1446" fill="#FFFFFF" width="1350" height="1269"/>
<rect x="-168.912" y="-1473" fill="#FFFFFF" width="1350" height="1269"/>
<g>
	<path d="M190.332-713.586h27.521l54.637-274.453h-30.354l8.297-40.547h92.884l39.865,304.922l158.651-304.922h95.717l-8.297,40.547
		h-27.723l-54.637,274.453h32.175l-7.892,40.312h-99.359l7.892-40.312h26.712l53.828-270.469L398.359-673.273h-46.745
		l-40.877-310.078l-53.828,269.766h32.985l-7.892,40.312H182.44L190.332-713.586z"/>
	<path d="M621.213-916.086h40.547l14.297-58.125l49.453-20.156l-18.516,78.281h51.094l-9.609,40.312h-51.094l-30.938,131.016
		c-0.783,3.127-1.523,6.292-2.227,9.492c-0.703,3.204-1.055,6.603-1.055,10.195c0,7.031,1.912,11.993,5.742,14.883
		c3.827,2.893,9.881,4.336,18.164,4.336c8.906,0,19.607-2.578,32.109-7.734l3.984,33.516c-8.283,3.907-16.252,6.991-23.906,9.258
		c-7.657,2.263-16.172,3.398-25.547,3.398c-9.844,0-18.83-1.212-26.953-3.633c-8.126-2.421-14.846-6.405-20.156-11.953
		c-5.313-5.544-8.829-12.81-10.547-21.797c-1.721-8.983-1.095-20.039,1.875-33.164l33.75-137.812h-40.078L621.213-916.086z"/>
	<path d="M759.685-701.164c0-4.219,0.82-8.203,2.461-11.953s3.867-6.991,6.68-9.727c2.812-2.732,6.094-4.922,9.844-6.562
		s7.812-2.461,12.188-2.461c4.219,0,8.203,0.82,11.953,2.461s6.991,3.831,9.727,6.562c2.732,2.735,4.922,5.977,6.562,9.727
		s2.461,7.734,2.461,11.953s-0.82,8.243-2.461,12.07c-1.641,3.831-3.83,7.188-6.562,10.078c-2.735,2.893-5.977,5.196-9.727,6.914
		s-7.734,2.578-11.953,2.578c-4.376,0-8.438-0.86-12.188-2.578s-7.031-4.021-9.844-6.914c-2.812-2.89-5.039-6.248-6.68-10.078
		C760.505-692.921,759.685-696.945,759.685-701.164z"/>
</g>
<rect x="-170.912" y="-125" width="1350" height="1269"/>
<g>
	<path fill="#FFFFFF" d="M188.332,634.414h27.521l54.637-274.453h-30.354l8.297-40.547h92.884l39.865,304.922l158.651-304.922
		h95.717l-8.297,40.547h-27.723l-54.637,274.453h32.175l-7.892,40.312h-99.359l7.892-40.312h26.712l53.828-270.469L396.359,674.727
		h-46.745l-40.877-310.078l-53.828,269.766h32.985l-7.892,40.312H180.44L188.332,634.414z"/>
	<path fill="#FFFFFF" d="M619.213,431.914h40.547l14.297-58.125l49.453-20.156l-18.516,78.281h51.094l-9.609,40.312h-51.094
		l-30.938,131.016c-0.783,3.127-1.523,6.292-2.227,9.492c-0.703,3.204-1.055,6.603-1.055,10.195c0,7.031,1.912,11.993,5.742,14.883
		c3.827,2.893,9.881,4.336,18.164,4.336c8.906,0,19.607-2.578,32.109-7.734l3.984,33.516c-8.283,3.907-16.252,6.991-23.906,9.258
		c-7.657,2.263-16.172,3.398-25.547,3.398c-9.844,0-18.83-1.212-26.953-3.633c-8.126-2.421-14.846-6.405-20.156-11.953
		c-5.313-5.544-8.829-12.81-10.547-21.797c-1.721-8.983-1.095-20.039,1.875-33.164l33.75-137.812h-40.078L619.213,431.914z"/>
	<path fill="#FFFFFF" d="M757.685,646.836c0-4.219,0.82-8.203,2.461-11.953s3.867-6.991,6.68-9.727
		c2.812-2.732,6.094-4.922,9.844-6.562s7.812-2.461,12.188-2.461c4.219,0,8.203,0.82,11.953,2.461s6.991,3.831,9.727,6.562
		c2.732,2.735,4.922,5.977,6.562,9.727s2.461,7.734,2.461,11.953s-0.82,8.243-2.461,12.07c-1.641,3.831-3.83,7.188-6.562,10.078
		c-2.735,2.893-5.977,5.196-9.727,6.914s-7.734,2.578-11.953,2.578c-4.376,0-8.438-0.86-12.188-2.578s-7.031-4.021-9.844-6.914
		c-2.812-2.89-5.039-6.248-6.68-10.078C758.505,655.079,757.685,651.055,757.685,646.836z"/>
</g>
<g>
	<path d="M180.98-1510.172h27.521l54.637-274.453h-30.354l8.297-40.547h92.884l39.865,304.922l158.651-304.922h95.717l-8.297,40.547
		h-27.723l-54.637,274.453h32.175l-7.892,40.312h-99.359l7.892-40.312h26.712l53.828-270.469l-161.889,310.781h-46.745
		l-40.877-310.078l-53.828,269.766h32.985l-7.892,40.312h-99.561L180.98-1510.172z"/>
	<path d="M611.861-1712.672h40.547l14.297-58.125l49.453-20.156l-18.516,78.281h51.094l-9.609,40.312h-51.094l-30.938,131.016
		c-0.783,3.127-1.523,6.292-2.227,9.492c-0.703,3.204-1.055,6.603-1.055,10.195c0,7.031,1.912,11.993,5.742,14.883
		c3.827,2.893,9.881,4.336,18.164,4.336c8.906,0,19.607-2.578,32.109-7.734l3.984,33.516c-8.283,3.907-16.252,6.991-23.906,9.258
		c-7.657,2.263-16.172,3.398-25.547,3.398c-9.844,0-18.83-1.212-26.953-3.633c-8.126-2.421-14.846-6.405-20.156-11.953
		c-5.313-5.544-8.829-12.81-10.547-21.797c-1.721-8.983-1.095-20.039,1.875-33.164l33.75-137.812h-40.078L611.861-1712.672z"/>
	<path d="M750.333-1497.75c0-4.219,0.82-8.203,2.461-11.953s3.867-6.991,6.68-9.727c2.812-2.732,6.094-4.922,9.844-6.562
		s7.812-2.461,12.188-2.461c4.219,0,8.203,0.82,11.953,2.461s6.991,3.831,9.727,6.562c2.732,2.735,4.922,5.977,6.562,9.727
		s2.461,7.734,2.461,11.953s-0.82,8.243-2.461,12.07c-1.641,3.831-3.83,7.188-6.562,10.078c-2.735,2.893-5.977,5.196-9.727,6.914
		s-7.734,2.578-11.953,2.578c-4.376,0-8.438-0.86-12.188-2.578s-7.031-4.021-9.844-6.914c-2.812-2.89-5.039-6.248-6.68-10.078
		C751.153-1489.507,750.333-1493.531,750.333-1497.75z"/>
</g>
<rect x="-1582.912" y="-1482" fill="none" width="1000" height="405"/>
<text transform="matrix(1 0 0 1 -1502.6768 -1117.2026)" font-family="'Arvo-Italic'" font-size="480">Mt.</text>
<g>
	<path d="M-575.77-677.443c-2,5-5,5-8.5,1c-7-7.5-12.5-24.5-1-54.5c18.5-47.5,99.5-181,153.5-254.5c4.5-6.5,9.5-8.5,16-3
		c19.5,17,25,34.5,12,74c-16,48-34,106.5-53,176.5c54.5-89,127.5-163.5,182.5-249c4.5-7,8.5-7.5,14.5-1.5c20,20.5,15,48,1.5,73
		c-35,65-85,166-110,238c-2,5-4,5-8,1.5c-8-6.5-14-21.5-5.5-54.5c7.5-29.5,39.5-99.5,72-162c-57,69-115,145.5-151,212.5
		c-2.5,5-5,6.5-9,3.5c-16.5-12-24-29.5-19-60.5c4.5-28.5,21-97.5,43-164C-490.27-833.943-546.27-744.443-575.77-677.443z"/>
	<path d="M-258.773-890.943c-5-7-2-10.5,5.5-10c14,0.5,28-0.5,41.5-2c15.5-27.5,29.5-51,38-62c4.5-6.5,9.5-6,12,0
		c5.5,14,5.5,30.5-6.5,56.5c19.5-0.5,27,8.5,31,15c3.5,6,1.5,9.5-6,9.5c-11-1.5-26.5,0-39,2c-19.5,33.5-48,82-67,124
		c-16.5,36.5-11,67.5,10,68.5c22.5,1,51-34.5,69.5-72c3-6,8.5-7,10.5,0c2.5,8,0,17-5,28.5c-6.5,14.5-39.5,58.5-79.5,57
		c-33-1-59.5-38-35.5-95.5c10.5-25,31.5-67,53-106.5C-243.273-877.943-254.773-885.443-258.773-890.943z"/>
	<circle cx="-141.188" cy="-690" r="18"/>
</g>
<g>
	<polygon points="2149.888,-983.175 1508.741,-983.175 1524.379,-1009.781 2165.526,-1009.781 	"/>
	<polygon points="2149.888,-854.785 1508.741,-854.785 1524.379,-881.39 2165.526,-881.39 	"/>
	<polygon points="2149.888,-726.395 1508.741,-726.395 1524.379,-753 2165.526,-753 	"/>
</g>
<rect x="2746.088" y="-1446" fill="#FFFFFF" width="1350" height="1269"/>
<g>
	<polygon points="3514.878,-623.528 3061.519,-1076.887 3091.389,-1084.642 3544.748,-631.283 	"/>
	<polygon points="3539.776,-1059.744 3086.417,-606.385 3078.661,-636.256 3532.02,-1089.615 	"/>
</g>
</svg>
